# xmcd
#
# Track frame offsets:
#	150
#	18533
#	32729
#	57919
#	73297
#	94556
#	112641
#
# Disc length: 1743 seconds
#
# Revision: 1
# Processed by: cddbd v1.5.2PL0 Copyright (c) Steve Scherf et al.
# Submitted via: audiograbber 1.83.01
#
DISCID=5306cd07
DTITLE=Andreas Carlsson - The Moonshine Band
DYEAR=1900
DGENRE=Country
TTITLE0=Nothing But You
TTITLE1=Friday Night
TTITLE2=The Way I Do (feat Sofi Öijwall)
TTITLE3=Don't Want You Hangin' Around
TTITLE4=Your World
TTITLE5=Right Place, Right Time
TTITLE6=Gone Too Soon
EXTD=
EXTT0=
EXTT1=
EXTT2=
EXTT3=
EXTT4=
EXTT5=
EXTT6=
PLAYORDER=
